<svg xmlns="http://www.w3.org/2000/svg" xmlns:xlink="http://www.w3.org/1999/xlink" width="950px" height="250px" viewBox="0 0 950 250" version="1.1">
<g id="surface1">
<path style=" stroke:none;fill-rule:evenodd;fill:#387a3d;fill-opacity:1;" d="M 842.648438 73.5 L 842.175781 74 L 840.273438 74 L 839.800781 74.5 L 838.375 74.5 L 837.898438 75 L 837.425781 75 L 836.949219 75.5 L 836 75.5 L 835.523438 76 L 835.050781 76 L 834.574219 76.5 L 834.101562 77 L 833.625 77 L 833.148438 77.5 L 832.675781 78 L 832.199219 78 L 831.726562 78.5 L 830.773438 79.5 L 830.300781 80 L 829.824219 80.5 L 829.351562 81 L 828.398438 82 L 827.925781 82.5 L 827.449219 83 L 827.449219 83.5 L 826.976562 84 L 826.5 84.5 L 826.5 85 L 826.023438 85.5 L 826.023438 86 L 825.550781 86.5 L 825.550781 87 L 825.074219 87.5 L 825.074219 88 L 824.601562 88.5 L 824.601562 89.5 L 824.125 90 L 824.125 91.5 L 823.648438 92 L 823.648438 114.5 L 824.125 115 L 824.125 116.5 L 824.601562 117 L 824.601562 118 L 825.074219 118.5 L 825.074219 119 L 825.550781 119.5 L 825.550781 120 L 826.023438 120.5 L 826.023438 121 L 826.5 121.5 L 826.5 122 L 826.976562 122.5 L 827.449219 123 L 827.449219 123.5 L 827.925781 124 L 828.398438 124.5 L 829.351562 125.5 L 829.824219 126 L 830.300781 126.5 L 830.773438 127 L 831.726562 128 L 832.199219 128.5 L 832.675781 128.5 L 833.148438 129 L 833.625 129.5 L 834.101562 129.5 L 834.574219 130 L 835.050781 130.5 L 835.523438 130.5 L 836 131 L 836.949219 131 L 837.425781 131.5 L 837.898438 131.5 L 838.375 132 L 839.800781 132 L 840.273438 132.5 L 842.175781 132.5 L 842.648438 133 L 894.425781 133 L 894.898438 133.5 L 895.851562 134.5 L 895.851562 147 L 894.898438 148 L 894.425781 148.5 L 845.976562 148.5 L 845.5 148 L 845.023438 148 L 844.550781 147.5 L 844.550781 147 L 844.074219 146.5 L 844.074219 143.5 L 823.648438 143.5 L 823.648438 152 L 824.125 152.5 L 824.125 154 L 824.601562 154.5 L 824.601562 155.5 L 825.074219 156 L 825.074219 156.5 L 825.550781 157 L 825.550781 157.5 L 826.023438 158 L 826.023438 158.5 L 826.976562 159.5 L 826.976562 160 L 827.449219 160.5 L 827.925781 161 L 827.925781 161.5 L 828.398438 162 L 829.351562 163 L 829.824219 163.5 L 830.300781 164 L 830.773438 164.5 L 831.726562 165.5 L 832.199219 165.5 L 832.675781 166 L 833.148438 166.5 L 833.625 166.5 L 834.101562 167 L 834.574219 167.5 L 835.050781 167.5 L 835.523438 168 L 836 168 L 836.476562 168.5 L 836.949219 168.5 L 837.425781 169 L 838.375 169 L 838.851562 169.5 L 840.273438 169.5 L 840.75 170 L 844.550781 170 L 845.023438 170.5 L 894.898438 170.5 L 895.375 170 L 899.648438 170 L 900.125 169.5 L 901.550781 169.5 L 902.023438 169 L 902.5 169 L 902.976562 168.5 L 903.925781 168.5 L 904.398438 168 L 904.875 168 L 905.351562 167.5 L 905.824219 167.5 L 906.300781 167 L 906.773438 166.5 L 907.25 166.5 L 907.726562 166 L 908.199219 165.5 L 908.675781 165 L 909.148438 165 L 910.101562 164 L 910.574219 163.5 L 911.050781 163 L 911.523438 162.5 L 911.523438 162 L 912.476562 161 L 912.949219 160.5 L 912.949219 160 L 913.425781 159.5 L 913.898438 159 L 913.898438 158.5 L 914.375 158 L 914.375 157.5 L 914.851562 157 L 914.851562 156.5 L 915.324219 156 L 915.324219 155.5 L 915.800781 155 L 915.800781 154 L 916.273438 153.5 L 916.273438 151.5 L 916.75 151 L 916.75 130 L 916.273438 129.5 L 916.273438 127.5 L 915.800781 127 L 915.800781 126 L 915.324219 125.5 L 915.324219 125 L 914.851562 124.5 L 914.851562 124 L 914.375 123.5 L 914.375 123 L 913.898438 122.5 L 913.898438 122 L 913.425781 121.5 L 912.949219 121 L 912.949219 120.5 L 912.476562 120 L 911.523438 119 L 911.050781 118.5 L 910.574219 118 L 910.101562 117.5 L 909.148438 116.5 L 908.675781 116 L 908.199219 115.5 L 907.726562 115 L 907.25 115 L 906.773438 114.5 L 906.300781 114 L 905.824219 114 L 905.351562 113.5 L 904.875 113.5 L 904.398438 113 L 903.925781 113 L 903.449219 112.5 L 902.976562 112.5 L 902.5 112 L 901.074219 112 L 900.601562 111.5 L 899.175781 111.5 L 898.699219 111 L 845.976562 111 L 845.5 110.5 L 845.023438 110.5 L 844.550781 110 L 844.550781 109.5 L 844.074219 109 L 844.074219 97 L 844.550781 96.5 L 845.023438 96 L 845.5 95.5 L 894.425781 95.5 L 894.898438 96 L 895.851562 97 L 895.851562 100.5 L 916.75 100.5 L 916.75 92.5 L 916.273438 92 L 916.273438 90.5 L 915.800781 90 L 915.800781 89 L 915.324219 88.5 L 915.324219 87.5 L 914.851562 87 L 914.851562 86.5 L 914.375 86 L 914.375 85.5 L 913.898438 85 L 913.425781 84.5 L 913.425781 84 L 912.949219 83.5 L 912.476562 83 L 912.476562 82.5 L 911.523438 81.5 L 911.050781 81 L 910.574219 80.5 L 910.101562 80 L 909.148438 79 L 908.675781 78.5 L 908.199219 78 L 907.726562 78 L 906.773438 77 L 906.300781 77 L 905.824219 76.5 L 905.351562 76.5 L 904.875 76 L 904.398438 76 L 903.925781 75.5 L 903.449219 75.5 L 902.976562 75 L 902.5 75 L 902.023438 74.5 L 900.601562 74.5 L 900.125 74 L 897.75 74 L 897.273438 73.5 Z M 842.648438 73.5 "/>
<path style=" stroke:none;fill-rule:evenodd;fill:#387a3d;fill-opacity:1;" d="M 722 73.5 L 721.523438 74 L 719.625 74 L 719.148438 74.5 L 717.726562 74.5 L 717.25 75 L 716.773438 75 L 716.300781 75.5 L 715.351562 75.5 L 714.875 76 L 714.398438 76 L 713.925781 76.5 L 713.449219 77 L 712.976562 77 L 712.023438 78 L 711.550781 78 L 711.074219 78.5 L 710.601562 79 L 709.648438 80 L 709.175781 80.5 L 708.699219 81 L 708.226562 81.5 L 707.273438 82.5 L 706.800781 83 L 706.800781 83.5 L 706.324219 84 L 705.851562 84.5 L 705.851562 85 L 705.375 85.5 L 705.375 86 L 704.898438 86.5 L 704.898438 87 L 704.425781 87.5 L 704.425781 88 L 703.949219 88.5 L 703.949219 89.5 L 703.476562 90 L 703.476562 91.5 L 703 92 L 703 114.5 L 703.476562 115 L 703.476562 116.5 L 703.949219 117 L 703.949219 118 L 704.425781 118.5 L 704.425781 119 L 704.898438 119.5 L 704.898438 120 L 705.375 120.5 L 705.375 121 L 705.851562 121.5 L 705.851562 122 L 706.324219 122.5 L 706.800781 123 L 706.800781 123.5 L 707.273438 124 L 708.226562 125 L 708.699219 125.5 L 709.175781 126 L 709.648438 126.5 L 710.601562 127.5 L 711.074219 128 L 711.550781 128.5 L 712.023438 128.5 L 712.976562 129.5 L 713.449219 129.5 L 713.925781 130 L 714.398438 130.5 L 714.875 130.5 L 715.351562 131 L 716.300781 131 L 716.773438 131.5 L 717.25 131.5 L 717.726562 132 L 719.148438 132 L 719.625 132.5 L 721.523438 132.5 L 722 133 L 773.773438 133 L 774.726562 134 L 775.199219 134.5 L 775.199219 147 L 774.726562 147.5 L 773.773438 148.5 L 725.324219 148.5 L 724.851562 148 L 724.375 148 L 723.898438 147.5 L 723.898438 147 L 723.425781 146.5 L 723.425781 143.5 L 703 143.5 L 703 152 L 703.476562 152.5 L 703.476562 154 L 703.949219 154.5 L 703.949219 155.5 L 704.425781 156 L 704.425781 156.5 L 704.898438 157 L 704.898438 157.5 L 705.375 158 L 705.375 158.5 L 705.851562 159 L 706.324219 159.5 L 706.324219 160 L 706.800781 160.5 L 707.273438 161 L 707.273438 161.5 L 708.226562 162.5 L 708.699219 163 L 709.175781 163.5 L 709.648438 164 L 710.601562 165 L 711.074219 165.5 L 711.550781 165.5 L 712.023438 166 L 712.5 166.5 L 712.976562 166.5 L 713.449219 167 L 713.925781 167.5 L 714.398438 167.5 L 714.875 168 L 715.351562 168 L 715.824219 168.5 L 716.300781 168.5 L 716.773438 169 L 717.726562 169 L 718.199219 169.5 L 719.625 169.5 L 720.101562 170 L 723.898438 170 L 724.375 170.5 L 774.25 170.5 L 774.726562 170 L 779 170 L 779.476562 169.5 L 780.898438 169.5 L 781.375 169 L 781.851562 169 L 782.324219 168.5 L 783.273438 168.5 L 783.75 168 L 784.226562 168 L 784.699219 167.5 L 785.175781 167.5 L 785.648438 167 L 786.125 166.5 L 786.601562 166.5 L 787.074219 166 L 787.550781 165.5 L 788.023438 165 L 788.5 165 L 788.976562 164.5 L 789.449219 164 L 789.925781 163.5 L 790.398438 163 L 790.875 162.5 L 790.875 162 L 791.351562 161.5 L 791.824219 161 L 792.300781 160.5 L 792.300781 160 L 792.773438 159.5 L 793.25 159 L 793.25 158.5 L 793.726562 158 L 793.726562 157.5 L 794.199219 157 L 794.199219 156.5 L 794.675781 156 L 794.675781 155.5 L 795.148438 155 L 795.148438 154 L 795.625 153.5 L 795.625 151.5 L 796.101562 151 L 796.101562 130 L 795.625 129.5 L 795.625 127.5 L 795.148438 127 L 795.148438 126 L 794.675781 125.5 L 794.675781 125 L 794.199219 124.5 L 794.199219 124 L 793.726562 123.5 L 793.726562 123 L 793.25 122.5 L 793.25 122 L 792.773438 121.5 L 792.300781 121 L 792.300781 120.5 L 791.824219 120 L 791.351562 119.5 L 790.398438 118.5 L 789.925781 118 L 789.449219 117.5 L 788.976562 117 L 788.023438 116 L 787.550781 115.5 L 787.074219 115 L 786.601562 115 L 785.648438 114 L 785.175781 114 L 784.699219 113.5 L 784.226562 113.5 L 783.75 113 L 783.273438 113 L 782.800781 112.5 L 782.324219 112.5 L 781.851562 112 L 780.425781 112 L 779.949219 111.5 L 778.523438 111.5 L 778.050781 111 L 725.324219 111 L 724.851562 110.5 L 724.375 110.5 L 723.898438 110 L 723.898438 109.5 L 723.425781 109 L 723.425781 97 L 723.898438 96.5 L 724.851562 95.5 L 773.773438 95.5 L 774.726562 96.5 L 775.199219 97 L 775.199219 100.5 L 796.101562 100.5 L 796.101562 92.5 L 795.625 92 L 795.625 90.5 L 795.148438 90 L 795.148438 89 L 794.675781 88.5 L 794.675781 87.5 L 794.199219 87 L 794.199219 86.5 L 793.726562 86 L 793.726562 85.5 L 792.773438 84.5 L 792.773438 84 L 792.300781 83.5 L 791.824219 83 L 791.824219 82.5 L 791.351562 82 L 790.398438 81 L 789.925781 80.5 L 789.449219 80 L 788.976562 79.5 L 788.023438 78.5 L 787.550781 78 L 787.074219 78 L 786.601562 77.5 L 786.125 77 L 785.648438 77 L 785.175781 76.5 L 784.699219 76.5 L 784.226562 76 L 783.75 76 L 783.273438 75.5 L 782.800781 75.5 L 782.324219 75 L 781.851562 75 L 781.375 74.5 L 779.949219 74.5 L 779.476562 74 L 777.101562 74 L 776.625 73.5 Z M 722 73.5 "/>
<path style=" stroke:none;fill-rule:evenodd;fill:#387a3d;fill-opacity:1;" d="M 602.300781 73.5 L 601.824219 74 L 599.925781 74 L 599.449219 74.5 L 598.023438 74.5 L 597.550781 75 L 597.074219 75 L 596.601562 75.5 L 595.648438 75.5 L 595.175781 76 L 594.699219 76 L 594.226562 76.5 L 593.75 77 L 593.273438 77 L 592.800781 77.5 L 592.324219 78 L 591.851562 78 L 590.898438 79 L 590.425781 79.5 L 589.949219 80 L 589.476562 80.5 L 588.523438 81.5 L 588.050781 82 L 587.574219 82.5 L 587.101562 83 L 587.101562 83.5 L 586.148438 84.5 L 586.148438 85 L 585.675781 85.5 L 585.675781 86 L 585.199219 86.5 L 585.199219 87 L 584.726562 87.5 L 584.726562 88 L 584.25 88.5 L 584.25 89.5 L 583.773438 90 L 583.773438 91.5 L 583.300781 92 L 583.300781 152 L 583.773438 152.5 L 583.773438 154 L 584.25 154.5 L 584.25 155.5 L 584.726562 156 L 584.726562 156.5 L 585.199219 157 L 585.199219 157.5 L 585.675781 158 L 585.675781 158.5 L 586.148438 159 L 586.625 159.5 L 586.625 160 L 587.101562 160.5 L 587.574219 161 L 587.574219 161.5 L 588.050781 162 L 588.523438 162.5 L 589.476562 163.5 L 589.949219 164 L 590.425781 164.5 L 590.898438 165 L 591.375 165.5 L 591.851562 165.5 L 592.324219 166 L 592.800781 166.5 L 593.273438 166.5 L 594.226562 167.5 L 594.699219 167.5 L 595.175781 168 L 595.648438 168 L 596.125 168.5 L 596.601562 168.5 L 597.074219 169 L 598.023438 169 L 598.5 169.5 L 599.925781 169.5 L 600.398438 170 L 604.199219 170 L 604.675781 170.5 L 676.398438 170.5 L 676.398438 148.5 L 605.625 148.5 L 605.148438 148 L 604.675781 148 L 604.199219 147.5 L 604.199219 147 L 603.726562 146.5 L 603.726562 133.5 L 604.199219 133 L 676.398438 133 L 676.398438 94 L 675.925781 93.5 L 675.925781 91 L 675.449219 90.5 L 675.449219 89 L 674.976562 88.5 L 674.976562 88 L 674.5 87.5 L 674.5 87 L 674.023438 86.5 L 674.023438 86 L 673.550781 85.5 L 673.550781 85 L 673.074219 84.5 L 673.074219 84 L 672.601562 83.5 L 672.125 83 L 672.125 82.5 L 671.648438 82 L 671.175781 81.5 L 670.699219 81 L 670.226562 80.5 L 669.273438 79.5 L 668.800781 79 L 668.324219 78.5 L 667.851562 78 L 667.375 78 L 666.898438 77.5 L 666.425781 77 L 665.949219 77 L 665.476562 76.5 L 665 76.5 L 664.523438 76 L 664.050781 76 L 663.574219 75.5 L 663.101562 75.5 L 662.625 75 L 662.148438 75 L 661.675781 74.5 L 660.25 74.5 L 659.773438 74 L 657.398438 74 L 656.925781 73.5 Z M 604.675781 96 L 605.148438 95.5 L 654.074219 95.5 L 654.550781 96 L 655.023438 96.5 L 655.5 97 L 655.5 113 L 655.023438 113.5 L 604.199219 113.5 L 603.726562 113 L 603.726562 97 L 604.199219 96.5 Z M 604.675781 96 "/>
<path style=" stroke:none;fill-rule:evenodd;fill:#387a3d;fill-opacity:1;" d="M 506.824219 73.5 L 506.351562 74 L 504.449219 74 L 503.976562 74.5 L 503.023438 74.5 L 502.550781 75 L 501.601562 75 L 501.125 75.5 L 500.648438 75.5 L 500.175781 76 L 499.699219 76 L 499.226562 76.5 L 498.75 76.5 L 498.273438 77 L 497.800781 77 L 497.324219 77.5 L 496.851562 78 L 496.375 78.5 L 495.898438 78.5 L 495.425781 79 L 494.949219 79.5 L 494.476562 80 L 493.523438 81 L 493.050781 81.5 L 492.574219 82 L 492.101562 82.5 L 492.101562 83 L 491.148438 84 L 491.148438 84.5 L 490.675781 85 L 490.199219 85.5 L 490.199219 86 L 489.726562 86.5 L 489.726562 87 L 489.25 87.5 L 489.25 88.5 L 488.773438 89 L 488.773438 90 L 488.300781 90.5 L 488.300781 92 L 487.824219 92.5 L 487.824219 170.5 L 508.726562 170.5 L 508.726562 96.5 L 509.199219 96 L 509.675781 95.5 L 560.5 95.5 L 560.5 73.5 Z M 506.824219 73.5 "/>
<path style=" stroke:none;fill-rule:evenodd;fill:#387a3d;fill-opacity:1;" d="M 388.550781 73.5 L 388.074219 74 L 385.699219 74 L 385.226562 74.5 L 384.273438 74.5 L 383.800781 75 L 382.851562 75 L 382.375 75.5 L 381.898438 75.5 L 381.425781 76 L 380.949219 76 L 380.476562 76.5 L 380 76.5 L 379.523438 77 L 379.050781 77.5 L 378.574219 77.5 L 378.101562 78 L 377.148438 79 L 376.675781 79 L 376.199219 79.5 L 375.726562 80 L 374.773438 81 L 374.300781 81.5 L 374.300781 82 L 373.824219 82.5 L 373.351562 83 L 372.875 83.5 L 372.875 84 L 372.398438 84.5 L 371.925781 85 L 371.925781 85.5 L 371.449219 86 L 371.449219 86.5 L 370.976562 87 L 370.976562 87.5 L 370.5 88 L 370.5 89 L 370.023438 89.5 L 370.023438 90.5 L 369.550781 91 L 369.550781 93.5 L 369.074219 94 L 369.074219 150 L 369.550781 150.5 L 369.550781 153 L 370.023438 153.5 L 370.023438 154.5 L 370.5 155 L 370.5 156 L 370.976562 156.5 L 370.976562 157 L 371.449219 157.5 L 371.449219 158 L 371.925781 158.5 L 371.925781 159 L 372.398438 159.5 L 372.875 160 L 372.875 160.5 L 373.351562 161 L 373.824219 161.5 L 374.300781 162 L 374.773438 162.5 L 375.726562 163.5 L 376.199219 164 L 376.675781 164.5 L 377.148438 165 L 378.101562 166 L 378.574219 166 L 379.050781 166.5 L 379.523438 167 L 380 167 L 380.476562 167.5 L 380.949219 167.5 L 381.425781 168 L 381.898438 168 L 382.375 168.5 L 382.851562 168.5 L 383.324219 169 L 384.273438 169 L 384.75 169.5 L 386.175781 169.5 L 386.648438 170 L 390.449219 170 L 390.925781 170.5 L 441.273438 170.5 L 441.75 171 L 441.75 184.5 L 441.273438 185 L 441.273438 185.5 L 440.800781 186 L 440.324219 186 L 439.851562 186.5 L 384.75 186.5 L 384.75 208.5 L 443.175781 208.5 L 443.648438 208 L 446.023438 208 L 446.5 207.5 L 447.925781 207.5 L 448.398438 207 L 448.875 207 L 449.351562 206.5 L 449.824219 206.5 L 450.300781 206 L 450.773438 206 L 451.25 205.5 L 451.726562 205.5 L 452.199219 205 L 452.675781 205 L 453.148438 204.5 L 453.625 204 L 454.101562 204 L 454.574219 203.5 L 455.050781 203 L 455.523438 202.5 L 456.476562 201.5 L 456.949219 201 L 457.425781 200.5 L 457.898438 200 L 458.375 199.5 L 458.375 199 L 458.851562 198.5 L 459.324219 198 L 459.324219 197.5 L 459.800781 197 L 459.800781 196.5 L 460.273438 196 L 460.273438 195.5 L 460.75 195 L 460.75 194.5 L 461.226562 194 L 461.226562 193 L 461.699219 192.5 L 461.699219 191 L 462.175781 190.5 L 462.175781 186 L 462.648438 185.5 L 462.648438 96.5 L 462.175781 96 L 462.175781 91.5 L 461.699219 91 L 461.699219 90 L 461.226562 89.5 L 461.226562 88.5 L 460.75 88 L 460.75 87 L 460.273438 86.5 L 460.273438 86 L 459.800781 85.5 L 459.800781 85 L 459.324219 84.5 L 458.851562 84 L 458.851562 83.5 L 457.898438 82.5 L 457.425781 82 L 457.425781 81.5 L 456.949219 81 L 456.476562 80.5 L 455.523438 79.5 L 455.050781 79 L 454.574219 79 L 454.101562 78.5 L 453.148438 77.5 L 452.675781 77.5 L 452.199219 77 L 451.726562 76.5 L 451.25 76.5 L 450.773438 76 L 450.300781 76 L 449.824219 75.5 L 449.351562 75.5 L 448.875 75 L 447.925781 75 L 447.449219 74.5 L 446.5 74.5 L 446.023438 74 L 443.648438 74 L 443.175781 73.5 Z M 390.925781 96 L 391.398438 95.5 L 440.324219 95.5 L 440.800781 96 L 441.273438 96.5 L 441.75 97 L 441.75 146.5 L 441.273438 147 L 441.273438 147.5 L 440.800781 148 L 440.324219 148 L 439.851562 148.5 L 391.398438 148.5 L 390.925781 148 L 390.449219 147.5 L 389.976562 147 L 389.976562 97 L 390.449219 96.5 Z M 390.925781 96 "/>
<path style=" stroke:none;fill-rule:evenodd;fill:#387a3d;fill-opacity:1;" d="M 174.800781 73.5 L 174.324219 74 L 172.425781 74 L 171.949219 74.5 L 171 74.5 L 170.523438 75 L 169.574219 75 L 169.101562 75.5 L 168.625 75.5 L 168.148438 76 L 167.675781 76 L 167.199219 76.5 L 166.726562 76.5 L 166.25 77 L 165.773438 77 L 165.300781 77.5 L 164.824219 78 L 164.351562 78.5 L 163.875 78.5 L 163.398438 79 L 162.925781 79.5 L 162.449219 80 L 161.976562 80.5 L 161.023438 81.5 L 160.550781 82 L 160.074219 82.5 L 160.074219 83 L 159.601562 83.5 L 159.125 84 L 159.125 84.5 L 158.648438 85 L 158.175781 85.5 L 158.175781 86 L 157.699219 86.5 L 157.699219 87 L 157.226562 87.5 L 157.226562 88.5 L 156.75 89 L 156.75 90 L 156.273438 90.5 L 156.273438 92 L 155.800781 92.5 L 155.800781 170.5 L 176.699219 170.5 L 176.699219 96.5 L 177.175781 96 L 177.648438 95.5 L 228.476562 95.5 L 228.476562 73.5 Z M 174.800781 73.5 "/>
<path style=" stroke:none;fill-rule:evenodd;fill:#387a3d;fill-opacity:1;" d="M 39.425781 73.5 L 39.425781 208.5 L 59.851562 208.5 L 59.851562 171 L 60.324219 170.5 L 110.675781 170.5 L 111.148438 170 L 114.949219 170 L 115.425781 169.5 L 116.851562 169.5 L 117.324219 169 L 118.273438 169 L 118.75 168.5 L 119.699219 168.5 L 120.175781 168 L 120.648438 168 L 121.601562 167 L 122.074219 167 L 122.550781 166.5 L 123.023438 166.5 L 123.976562 165.5 L 124.449219 165 L 124.925781 164.5 L 125.398438 164.5 L 126.351562 163.5 L 126.824219 163 L 127.300781 162.5 L 127.300781 162 L 127.773438 161.5 L 128.726562 160.5 L 128.726562 160 L 129.199219 159.5 L 129.675781 159 L 129.675781 158.5 L 130.148438 158 L 130.148438 157.5 L 130.625 157 L 130.625 156.5 L 131.101562 156 L 131.101562 155 L 131.574219 154.5 L 131.574219 153 L 132.050781 152.5 L 132.050781 150.5 L 132.523438 150 L 132.523438 94 L 132.050781 93.5 L 132.050781 91 L 131.574219 90.5 L 131.574219 89.5 L 131.101562 89 L 131.101562 88 L 130.625 87.5 L 130.625 87 L 130.148438 86.5 L 130.148438 86 L 129.675781 85.5 L 129.675781 85 L 129.199219 84.5 L 129.199219 84 L 128.726562 83.5 L 127.773438 82.5 L 127.773438 82 L 127.300781 81.5 L 126.824219 81 L 126.351562 80.5 L 125.398438 79.5 L 124.925781 79 L 124.449219 78.5 L 123.976562 78.5 L 123.023438 77.5 L 122.550781 77 L 122.074219 77 L 121.601562 76.5 L 121.125 76.5 L 120.648438 76 L 120.175781 76 L 119.699219 75.5 L 119.226562 75.5 L 118.75 75 L 117.800781 75 L 117.324219 74.5 L 116.375 74.5 L 115.898438 74 L 113.523438 74 L 113.050781 73.5 Z M 60.800781 96 L 61.273438 95.5 L 110.199219 95.5 L 110.675781 96 L 111.148438 96.5 L 111.625 97 L 111.625 147 L 111.148438 147.5 L 110.675781 148 L 110.199219 148.5 L 61.75 148.5 L 61.273438 148 L 60.800781 148 L 60.324219 147.5 L 60.324219 147 L 59.851562 146.5 L 59.851562 97 L 60.324219 96.5 Z M 60.800781 96 "/>
<path style=" stroke:none;fill-rule:evenodd;fill:#387a3d;fill-opacity:1;" d="M 291.175781 24 L 290.699219 24.5 L 290.226562 25 L 289.273438 26 L 289.273438 26.5 L 288.800781 27 L 288.324219 27.5 L 287.851562 28 L 287.375 28.5 L 287.375 29 L 286.898438 29.5 L 286.425781 30 L 285.949219 30.5 L 285.476562 31 L 285 31.5 L 285 32 L 284.523438 32.5 L 284.050781 33 L 283.574219 33.5 L 283.101562 34 L 283.101562 34.5 L 282.148438 35.5 L 281.675781 36 L 281.675781 36.5 L 281.199219 37 L 280.726562 37.5 L 279.773438 38.5 L 279.773438 39 L 279.300781 39.5 L 278.824219 40 L 278.351562 40.5 L 278.351562 41 L 277.398438 42 L 276.925781 42.5 L 276.925781 43 L 276.449219 43.5 L 275.976562 44 L 275.5 44.5 L 275.5 45 L 275.023438 45.5 L 274.550781 46 L 274.074219 46.5 L 274.074219 47 L 273.601562 47.5 L 273.125 48 L 273.125 48.5 L 272.648438 49 L 272.175781 49.5 L 271.699219 50 L 271.699219 50.5 L 271.226562 51 L 270.75 51.5 L 270.75 52 L 270.273438 52.5 L 269.800781 53 L 269.800781 53.5 L 269.324219 54 L 268.851562 54.5 L 268.851562 55 L 267.898438 56 L 267.425781 56.5 L 267.425781 57 L 266.949219 57.5 L 266.476562 58 L 266.476562 58.5 L 266 59 L 266 59.5 L 265.523438 60 L 265.050781 60.5 L 265.050781 61 L 264.574219 61.5 L 264.101562 62 L 264.101562 62.5 L 263.148438 63.5 L 263.148438 64 L 262.675781 64.5 L 262.675781 65 L 262.199219 65.5 L 261.726562 66 L 261.726562 66.5 L 261.25 67 L 261.25 67.5 L 260.773438 68 L 260.300781 68.5 L 260.300781 69 L 259.824219 69.5 L 259.824219 70 L 259.351562 70.5 L 259.351562 71 L 258.398438 72 L 258.398438 72.5 L 257.925781 73 L 257.925781 73.5 L 257.449219 74 L 257.449219 74.5 L 256.976562 75 L 256.976562 75.5 L 256.5 76 L 256.5 76.5 L 256.023438 77 L 255.550781 77.5 L 255.550781 78 L 255.074219 78.5 L 255.074219 79 L 254.601562 79.5 L 254.601562 80 L 254.125 80.5 L 254.125 81 L 253.648438 81.5 L 253.648438 82 L 253.175781 82.5 L 253.175781 83 L 252.699219 83.5 L 252.699219 84 L 252.226562 84.5 L 252.226562 85.5 L 251.75 86 L 251.75 86.5 L 251.273438 87 L 251.273438 87.5 L 250.800781 88 L 250.800781 88.5 L 250.324219 89 L 250.324219 90 L 249.851562 90.5 L 249.851562 91 L 249.375 91.5 L 249.375 92 L 248.898438 92.5 L 248.898438 93.5 L 248.425781 94 L 248.425781 94.5 L 247.949219 95 L 247.949219 96 L 247.476562 96.5 L 247.476562 97.5 L 247 98 L 247 99 L 246.523438 99.5 L 246.523438 100.5 L 246.050781 101 L 246.050781 102 L 245.574219 102.5 L 245.574219 103.5 L 245.101562 104 L 245.101562 105 L 244.625 105.5 L 244.625 107 L 244.148438 107.5 L 244.148438 109 L 243.675781 109.5 L 243.675781 111 L 243.199219 111.5 L 243.199219 113.5 L 242.726562 114 L 242.726562 116 L 242.25 116.5 L 242.25 119 L 241.773438 119.5 L 241.773438 123.5 L 241.300781 124 L 241.300781 138.5 L 241.773438 139 L 241.773438 142.5 L 242.25 143 L 242.25 145.5 L 242.726562 146 L 242.726562 148 L 243.199219 148.5 L 243.199219 150 L 243.675781 150.5 L 243.675781 151.5 L 244.148438 152 L 244.148438 153 L 244.625 153.5 L 244.625 154.5 L 245.101562 155 L 245.101562 156 L 245.574219 156.5 L 245.574219 157.5 L 246.050781 158 L 246.050781 158.5 L 246.523438 159 L 246.523438 159.5 L 247 160 L 247 160.5 L 247.476562 161 L 247.476562 161.5 L 247.949219 162 L 248.425781 162.5 L 248.425781 163 L 248.898438 163.5 L 248.898438 164 L 249.851562 165 L 249.851562 165.5 L 250.324219 166 L 250.800781 166.5 L 251.273438 167 L 251.273438 167.5 L 252.226562 168.5 L 252.699219 169 L 253.175781 169.5 L 253.648438 170 L 254.601562 171 L 255.074219 171.5 L 255.550781 172 L 256.023438 172.5 L 256.976562 173.5 L 257.449219 174 L 257.925781 174 L 258.398438 174.5 L 259.351562 175.5 L 259.824219 175.5 L 260.300781 176 L 260.773438 176.5 L 261.25 177 L 261.726562 177 L 262.199219 177.5 L 262.675781 177.5 L 263.148438 178 L 263.625 178.5 L 264.101562 178.5 L 264.574219 179 L 265.050781 179 L 265.523438 179.5 L 266 179.5 L 266.476562 180 L 266.949219 180 L 267.425781 180.5 L 267.898438 180.5 L 268.375 181 L 268.851562 181 L 269.324219 181.5 L 270.273438 181.5 L 270.75 182 L 271.226562 182 L 271.699219 182.5 L 272.648438 182.5 L 273.125 183 L 274.074219 183 L 274.550781 183.5 L 275.5 183.5 L 275.976562 184 L 276.925781 184 L 277.398438 184.5 L 278.824219 184.5 L 279.300781 185 L 280.726562 185 L 281.199219 185.5 L 283.101562 185.5 L 283.574219 186 L 286.425781 186 L 286.898438 186.5 L 288.800781 186.5 L 289.273438 187 L 289.273438 225 L 289.75 225.5 L 289.75 226 L 290.226562 226.5 L 293.550781 226.5 L 294.023438 226 L 294.023438 225.5 L 294.5 225 L 294.5 187 L 294.976562 186.5 L 296.398438 186.5 L 296.875 186 L 299.726562 186 L 300.199219 185.5 L 302.101562 185.5 L 302.574219 185 L 304 185 L 304.476562 184.5 L 305.898438 184.5 L 306.375 184 L 307.800781 184 L 308.273438 183.5 L 309.226562 183.5 L 309.699219 183 L 310.648438 183 L 311.125 182.5 L 312.074219 182.5 L 312.550781 182 L 313.023438 182 L 313.5 181.5 L 314.449219 181.5 L 314.925781 181 L 315.398438 181 L 315.875 180.5 L 316.351562 180.5 L 316.824219 180 L 317.300781 180 L 317.773438 179.5 L 318.25 179.5 L 318.726562 179 L 319.199219 179 L 319.675781 178.5 L 320.148438 178 L 320.625 178 L 321.101562 177.5 L 321.574219 177.5 L 322.050781 177 L 322.523438 176.5 L 323 176.5 L 323.476562 176 L 323.949219 175.5 L 324.425781 175.5 L 324.898438 175 L 325.851562 174 L 326.324219 174 L 326.800781 173.5 L 327.273438 173 L 328.226562 172 L 328.699219 171.5 L 329.175781 171 L 329.648438 170.5 L 330.601562 169.5 L 331.074219 169 L 331.550781 168.5 L 332.023438 168 L 332.5 167.5 L 332.5 167 L 332.976562 166.5 L 333.449219 166 L 333.925781 165.5 L 333.925781 165 L 334.398438 164.5 L 334.875 164 L 334.875 163.5 L 335.351562 163 L 335.824219 162.5 L 335.824219 162 L 336.300781 161.5 L 336.300781 161 L 336.773438 160.5 L 336.773438 160 L 337.25 159.5 L 337.25 159 L 337.726562 158.5 L 337.726562 158 L 338.199219 157.5 L 338.199219 156.5 L 338.675781 156 L 338.675781 155.5 L 339.148438 155 L 339.148438 154 L 339.625 153.5 L 339.625 152.5 L 340.101562 152 L 340.101562 150.5 L 340.574219 150 L 340.574219 148.5 L 341.050781 148 L 341.050781 146 L 341.523438 145.5 L 341.523438 143.5 L 342 143 L 342 139.5 L 342.476562 139 L 342.476562 123.5 L 342 123 L 342 119.5 L 341.523438 119 L 341.523438 116.5 L 341.050781 116 L 341.050781 114 L 340.574219 113.5 L 340.574219 111.5 L 340.101562 111 L 340.101562 109.5 L 339.625 109 L 339.625 107.5 L 339.148438 107 L 339.148438 105.5 L 338.675781 105 L 338.675781 104 L 338.199219 103.5 L 338.199219 102.5 L 337.726562 102 L 337.726562 101 L 337.25 100.5 L 337.25 99.5 L 336.773438 99 L 336.773438 98 L 336.300781 97.5 L 336.300781 96.5 L 335.824219 96 L 335.824219 95 L 335.351562 94.5 L 335.351562 94 L 334.875 93.5 L 334.875 92.5 L 334.398438 92 L 334.398438 91.5 L 333.925781 91 L 333.925781 90.5 L 333.449219 90 L 333.449219 89 L 332.976562 88.5 L 332.976562 88 L 332.5 87.5 L 332.5 87 L 332.023438 86.5 L 332.023438 86 L 331.550781 85.5 L 331.550781 84.5 L 331.074219 84 L 331.074219 83.5 L 330.601562 83 L 330.601562 82.5 L 330.125 82 L 330.125 81.5 L 329.648438 81 L 329.648438 80.5 L 329.175781 80 L 329.175781 79.5 L 328.699219 79 L 328.699219 78.5 L 328.226562 78 L 328.226562 77.5 L 327.75 77 L 327.75 76.5 L 327.273438 76 L 327.273438 75.5 L 326.800781 75 L 326.324219 74.5 L 326.324219 74 L 325.851562 73.5 L 325.851562 73 L 325.375 72.5 L 325.375 72 L 324.898438 71.5 L 324.898438 71 L 324.425781 70.5 L 323.949219 70 L 323.949219 69.5 L 323.476562 69 L 323.476562 68.5 L 322.523438 67.5 L 322.523438 67 L 322.050781 66.5 L 322.050781 66 L 321.574219 65.5 L 321.101562 65 L 321.101562 64.5 L 320.625 64 L 320.625 63.5 L 320.148438 63 L 319.675781 62.5 L 319.675781 62 L 319.199219 61.5 L 318.726562 61 L 318.726562 60.5 L 317.773438 59.5 L 317.773438 59 L 317.300781 58.5 L 317.300781 58 L 316.824219 57.5 L 316.351562 57 L 316.351562 56.5 L 315.398438 55.5 L 315.398438 55 L 314.925781 54.5 L 314.449219 54 L 314.449219 53.5 L 313.976562 53 L 313.023438 52 L 313.023438 51.5 L 312.550781 51 L 312.074219 50.5 L 312.074219 50 L 311.601562 49.5 L 311.125 49 L 311.125 48.5 L 310.648438 48 L 310.175781 47.5 L 309.699219 47 L 309.699219 46.5 L 309.226562 46 L 308.273438 45 L 308.273438 44.5 L 307.800781 44 L 307.324219 43.5 L 307.324219 43 L 306.851562 42.5 L 305.898438 41.5 L 305.898438 41 L 305.425781 40.5 L 304.949219 40 L 304.476562 39.5 L 304 39 L 304 38.5 L 303.523438 38 L 303.050781 37.5 L 302.574219 37 L 302.574219 36.5 L 302.101562 36 L 301.148438 35 L 300.675781 34.5 L 300.675781 34 L 300.199219 33.5 L 299.726562 33 L 299.25 32.5 L 299.25 32 L 298.773438 31.5 L 298.300781 31 L 297.824219 30.5 L 297.351562 30 L 296.875 29.5 L 296.875 29 L 296.398438 28.5 L 295.925781 28 L 295.449219 27.5 L 294.976562 27 L 294.976562 26.5 L 294.023438 25.5 L 293.550781 25 L 293.074219 24.5 L 292.601562 24 Z M 290.699219 149 L 291.175781 148.5 L 292.601562 148.5 L 293.074219 149 L 294.023438 149 L 294.976562 150 L 295.449219 150.5 L 295.925781 151 L 296.398438 151.5 L 296.398438 152 L 296.875 152.5 L 296.875 155 L 296.398438 155.5 L 296.398438 156 L 295.925781 156.5 L 295.925781 157 L 295.449219 157.5 L 294.976562 157.5 L 294.023438 158.5 L 293.550781 158.5 L 293.074219 159 L 292.601562 159 L 292.601562 171 L 293.550781 171 L 294.023438 170.5 L 294.976562 169.5 L 295.449219 169 L 295.925781 168.5 L 296.398438 168 L 297.351562 167 L 297.824219 166.5 L 298.300781 166 L 298.773438 165.5 L 299.726562 164.5 L 304.949219 164.5 L 304.949219 164 L 305.425781 163.5 L 305.425781 163 L 305.898438 162.5 L 305.898438 162 L 306.851562 161 L 307.324219 161 L 307.800781 160.5 L 311.125 160.5 L 311.601562 161 L 312.074219 161 L 312.550781 161.5 L 313.023438 162 L 313.5 162.5 L 313.5 163 L 313.976562 163.5 L 313.976562 166.5 L 313.5 167 L 313.5 167.5 L 313.023438 168 L 312.550781 168.5 L 312.074219 169 L 311.601562 169.5 L 310.648438 169.5 L 310.175781 170 L 309.226562 170 L 308.75 169.5 L 307.800781 169.5 L 307.324219 169 L 306.851562 169 L 305.898438 168 L 305.425781 167.5 L 305.425781 166.5 L 304.949219 166 L 300.199219 166 L 299.726562 166.5 L 298.773438 167.5 L 298.300781 168 L 297.824219 168.5 L 297.351562 169 L 296.398438 170 L 295.925781 170.5 L 295.449219 171 L 294.976562 171.5 L 294.023438 172.5 L 293.550781 173 L 293.074219 173.5 L 292.601562 174 L 292.601562 183 L 292.125 183.5 L 291.648438 183.5 L 291.175781 183 L 291.175781 177.5 L 290.699219 177 L 290.226562 176.5 L 289.75 176 L 289.75 175.5 L 289.273438 175 L 288.800781 174.5 L 288.324219 174 L 287.851562 173.5 L 287.851562 173 L 286.898438 172 L 286.425781 171.5 L 285.949219 171 L 285.949219 170.5 L 285.476562 170 L 284.523438 169 L 284.050781 168.5 L 284.050781 168 L 283.574219 167.5 L 283.101562 167 L 282.148438 166 L 282.148438 165.5 L 281.675781 165 L 281.675781 160 L 278.351562 160 L 277.875 159.5 L 277.398438 159.5 L 276.925781 159 L 276.449219 159 L 275.976562 158.5 L 275.5 158 L 275.5 157.5 L 275.023438 157 L 275.023438 156.5 L 274.550781 156 L 274.550781 153.5 L 275.023438 153 L 275.023438 152.5 L 275.976562 151.5 L 276.449219 151 L 276.925781 150.5 L 277.398438 150 L 278.824219 150 L 279.300781 149.5 L 279.773438 149.5 L 280.25 150 L 281.199219 150 L 281.675781 150.5 L 282.148438 150.5 L 283.101562 151.5 L 283.574219 152 L 284.050781 152.5 L 284.050781 154 L 284.523438 154.5 L 284.523438 155.5 L 284.050781 156 L 284.050781 157 L 283.574219 157.5 L 283.574219 165 L 284.050781 165.5 L 284.050781 166 L 284.523438 166.5 L 285.476562 167.5 L 285.949219 168 L 285.949219 168.5 L 286.425781 169 L 286.898438 169.5 L 287.851562 170.5 L 287.851562 171 L 288.324219 171.5 L 288.800781 172 L 289.273438 172.5 L 289.75 173 L 289.75 173.5 L 290.226562 174 L 291.175781 174 L 291.175781 159 L 290.699219 158.5 L 289.75 158.5 L 289.273438 158 L 288.800781 157.5 L 288.324219 157 L 287.851562 156.5 L 287.375 156 L 287.375 155 L 286.898438 154.5 L 286.898438 153 L 287.375 152.5 L 287.375 151.5 L 287.851562 151 L 288.324219 150.5 L 288.800781 150 L 289.273438 149.5 L 289.75 149 Z M 320.148438 148 L 320.625 147.5 L 323.949219 147.5 L 324.425781 148 L 324.898438 148.5 L 325.375 149 L 325.375 151.5 L 324.898438 152 L 324.425781 152.5 L 323.949219 153 L 321.574219 153 L 321.101562 152.5 L 320.148438 151.5 Z M 319.675781 147.5 L 320.148438 147 L 320.625 147.5 L 320.148438 148 Z M 319.199219 147 L 319.675781 146.5 L 320.148438 147 L 319.675781 147.5 Z M 318.726562 146.5 L 319.199219 146 L 319.675781 146.5 L 319.199219 147 Z M 318.25 146 L 318.726562 145.5 L 319.199219 146 L 318.726562 146.5 Z M 317.773438 145.5 L 318.25 145 L 318.726562 145.5 L 318.25 146 Z M 317.300781 145 L 317.773438 144.5 L 318.25 145 L 317.773438 145.5 Z M 298.300781 137 L 298.773438 136.5 L 299.25 136.5 L 299.726562 137 L 300.199219 137.5 L 300.675781 138 L 301.148438 138.5 L 302.101562 139.5 L 302.574219 140 L 303.050781 140.5 L 303.523438 141 L 304.476562 142 L 304.949219 142.5 L 305.425781 143 L 305.898438 143.5 L 306.375 144 L 317.300781 144 L 317.773438 144.5 L 317.300781 145 L 305.898438 145 L 305.425781 144.5 L 304.949219 144 L 304.476562 143.5 L 303.523438 142.5 L 303.050781 142 L 302.574219 141.5 L 302.101562 141 L 301.148438 140 L 300.675781 139.5 L 300.199219 139 L 299.726562 138.5 L 298.773438 137.5 Z M 284.050781 137 L 284.523438 136.5 L 285 136.5 L 285.476562 137 L 284.523438 138 L 284.050781 138.5 L 283.574219 139 L 283.101562 139.5 L 282.148438 140.5 L 281.675781 141 L 281.199219 141.5 L 280.726562 142 L 279.773438 143 L 279.300781 143.5 L 278.824219 144 L 278.351562 144.5 L 277.398438 145.5 L 276.925781 146 L 276.449219 146.5 L 275.976562 147 L 275.023438 148 L 274.550781 148.5 L 274.074219 149 L 273.601562 149.5 L 272.648438 150.5 L 272.175781 151 L 271.699219 151.5 L 262.675781 151.5 L 262.675781 152.5 L 262.199219 153 L 261.726562 153.5 L 261.25 153.5 L 260.773438 154 L 259.824219 154 L 259.351562 153.5 L 258.875 153.5 L 258.398438 153 L 257.925781 152.5 L 257.449219 152 L 257.449219 149.5 L 257.925781 149 L 258.398438 148.5 L 258.875 148 L 261.25 148 L 261.726562 148.5 L 262.199219 149 L 262.675781 149.5 L 262.675781 150 L 263.148438 150.5 L 271.226562 150.5 L 271.699219 150 L 272.175781 149.5 L 272.648438 149 L 273.601562 148 L 274.074219 147.5 L 274.550781 147 L 275.023438 146.5 L 275.976562 145.5 L 276.449219 145 L 276.925781 144.5 L 277.398438 144 L 278.351562 143 L 278.824219 142.5 L 279.300781 142 L 279.773438 141.5 L 280.726562 140.5 L 281.199219 140 L 281.675781 139.5 L 282.148438 139 L 283.101562 138 L 283.574219 137.5 Z M 273.125 132.5 L 273.601562 132 L 275.5 132 L 275.976562 132.5 L 276.925781 132.5 L 277.398438 133 L 278.351562 134 L 278.824219 134.5 L 278.824219 135 L 279.300781 135.5 L 279.300781 138 L 278.824219 138.5 L 278.824219 139 L 278.351562 139.5 L 278.351562 140 L 277.875 140.5 L 277.398438 140.5 L 276.925781 141 L 276.449219 141.5 L 273.125 141.5 L 272.648438 141 L 271.699219 141 L 271.226562 141.5 L 270.273438 142.5 L 254.601562 142.5 L 254.601562 143 L 254.125 143.5 L 253.648438 143.5 L 253.648438 144 L 253.175781 144.5 L 252.699219 145 L 252.226562 145 L 252.226562 145.5 L 251.75 146 L 251.273438 146 L 251.273438 146.5 L 250.800781 147 L 250.324219 147.5 L 249.851562 148 L 249.375 148 L 249.375 148.5 L 248.898438 149 L 248.425781 149 L 247.949219 149.5 L 247.476562 149 L 247 148.5 L 247.476562 148 L 247.949219 147.5 L 248.425781 147 L 248.898438 146.5 L 249.851562 145.5 L 250.324219 145 L 250.800781 144.5 L 251.273438 144 L 252.226562 143 L 252.699219 142.5 L 253.175781 142 L 253.648438 141.5 L 254.125 141 L 269.800781 141 L 270.273438 140.5 L 270.75 140 L 270.75 139 L 270.273438 138.5 L 270.273438 135.5 L 270.75 135 L 270.75 134.5 L 271.226562 134 L 271.699219 133.5 L 272.175781 133 L 272.648438 132.5 Z M 307.800781 130 L 308.273438 129.5 L 311.125 129.5 L 311.601562 130 L 312.074219 130 L 312.550781 130.5 L 313.023438 131 L 313.976562 132 L 313.976562 133 L 314.449219 133.5 L 317.773438 133.5 L 318.726562 134.5 L 319.199219 135 L 319.675781 135.5 L 320.148438 136 L 321.101562 137 L 321.574219 137.5 L 322.050781 138 L 322.523438 138.5 L 323.476562 139.5 L 323.949219 140 L 324.425781 140.5 L 324.898438 141 L 325.851562 142 L 326.324219 142.5 L 326.800781 143 L 327.273438 143.5 L 327.75 144 L 336.773438 144 L 337.25 144.5 L 337.25 145 L 336.773438 145.5 L 326.800781 145.5 L 326.324219 145 L 325.851562 144.5 L 324.898438 143.5 L 324.425781 143 L 323.949219 142.5 L 323.476562 142 L 322.523438 141 L 322.050781 140.5 L 321.574219 140 L 321.101562 139.5 L 320.148438 138.5 L 319.675781 138 L 319.199219 137.5 L 318.726562 137 L 317.773438 136 L 317.300781 135.5 L 316.824219 135 L 314.449219 135 L 313.976562 135.5 L 313.976562 136 L 313.5 136.5 L 313.5 137 L 313.023438 137.5 L 312.550781 138 L 312.074219 138.5 L 311.125 138.5 L 310.648438 139 L 308.75 139 L 308.273438 138.5 L 307.800781 138.5 L 307.324219 138 L 306.851562 138 L 306.375 137.5 L 306.375 137 L 305.898438 136.5 L 305.425781 136 L 305.425781 132.5 L 305.898438 132 L 305.898438 131.5 L 306.851562 130.5 L 307.324219 130 Z M 327.75 124.5 L 328.226562 124 L 330.601562 124 L 331.074219 124.5 L 331.550781 125 L 332.023438 125.5 L 332.023438 128 L 331.550781 128.5 L 331.074219 129 L 330.601562 129.5 L 330.125 129.5 L 329.648438 130 L 328.699219 130 L 328.226562 129.5 L 327.75 129.5 L 327.273438 129 L 326.800781 128.5 L 326.800781 128 L 326.324219 127.5 L 298.773438 127.5 L 298.300781 127 L 298.773438 126.5 L 326.324219 126.5 L 326.324219 126 L 326.800781 125.5 L 327.273438 125 Z M 253.175781 124.5 L 253.648438 124 L 255.550781 124 L 256.023438 124.5 L 256.5 124.5 L 256.976562 125 L 256.976562 125.5 L 257.449219 126 L 257.449219 126.5 L 285 126.5 L 285.476562 127 L 285 127.5 L 257.449219 127.5 L 257.449219 128 L 256.976562 128.5 L 256.023438 129.5 L 255.550781 129.5 L 255.074219 130 L 254.125 130 L 253.648438 129.5 L 253.175781 129.5 L 252.699219 129 L 252.226562 128.5 L 251.75 128 L 251.75 126 L 252.226562 125.5 L 252.226562 125 L 252.699219 124.5 Z M 326.324219 110.5 L 326.800781 110 L 328.699219 110 L 329.175781 110.5 L 329.648438 110.5 L 330.125 111 L 330.125 111.5 L 330.601562 112 L 330.601562 114 L 329.648438 115 L 329.175781 115.5 L 328.699219 115.5 L 328.226562 116 L 327.273438 116 L 326.800781 115.5 L 326.324219 115.5 L 325.851562 115 L 324.898438 114 L 324.898438 113.5 L 316.351562 113.5 L 315.398438 114.5 L 314.925781 115 L 314.449219 115.5 L 313.976562 116 L 313.023438 117 L 312.550781 117.5 L 312.074219 118 L 311.601562 118.5 L 310.648438 119.5 L 310.175781 120 L 309.699219 120.5 L 309.226562 121 L 308.273438 122 L 298.773438 122 L 298.300781 121.5 L 298.773438 121 L 307.800781 121 L 308.273438 120.5 L 309.226562 119.5 L 309.699219 119 L 310.175781 118.5 L 310.648438 118 L 311.601562 117 L 312.074219 116.5 L 312.550781 116 L 313.023438 115.5 L 313.976562 114.5 L 314.449219 114 L 314.925781 113.5 L 315.398438 113 L 315.875 112.5 L 324.898438 112.5 L 324.898438 112 L 325.375 111.5 L 325.375 111 L 325.851562 110.5 Z M 256.023438 104.5 L 256.5 104 L 258.398438 104 L 259.351562 105 L 259.824219 105.5 L 260.300781 106 L 260.300781 106.5 L 263.148438 106.5 L 264.101562 107.5 L 264.574219 108 L 265.050781 108.5 L 265.523438 109 L 266.476562 110 L 266.949219 110.5 L 267.425781 111 L 267.898438 111.5 L 268.851562 112.5 L 269.324219 113 L 269.800781 113.5 L 270.273438 114 L 271.226562 115 L 271.699219 115.5 L 272.175781 116 L 272.648438 116.5 L 273.601562 117.5 L 274.074219 118 L 274.550781 118.5 L 275.023438 119 L 275.976562 120 L 276.449219 120.5 L 285 120.5 L 285.476562 121 L 285 121.5 L 275.976562 121.5 L 275.023438 120.5 L 274.550781 120 L 274.074219 119.5 L 273.601562 119 L 272.648438 118 L 272.175781 117.5 L 271.699219 117 L 271.226562 116.5 L 270.273438 115.5 L 269.800781 115 L 269.324219 114.5 L 268.851562 114 L 267.898438 113 L 267.425781 112.5 L 266.949219 112 L 266.476562 111.5 L 265.523438 110.5 L 265.050781 110 L 264.574219 109.5 L 264.101562 109 L 263.148438 108 L 262.675781 107.5 L 260.300781 107.5 L 260.300781 108 L 259.824219 108.5 L 259.351562 109 L 258.398438 110 L 256.5 110 L 256.023438 109.5 L 255.550781 109 L 255.074219 108.5 L 254.601562 108 L 254.601562 106 L 255.074219 105.5 L 255.550781 105 Z M 253.648438 93 L 254.125 92.5 L 259.824219 92.5 L 260.300781 93 L 260.773438 93 L 261.25 93.5 L 261.25 94 L 261.726562 94.5 L 262.199219 95 L 262.675781 95.5 L 263.148438 96 L 264.101562 97 L 264.574219 97.5 L 265.050781 97.5 L 265.523438 98 L 265.523438 98.5 L 266.476562 99.5 L 266.949219 100 L 267.425781 100.5 L 267.898438 101 L 268.851562 102 L 269.324219 102.5 L 269.800781 103 L 270.273438 103.5 L 271.226562 104.5 L 271.699219 105 L 272.648438 105 L 273.125 104.5 L 276.449219 104.5 L 276.925781 105 L 277.398438 105.5 L 277.875 105.5 L 278.351562 106 L 278.351562 106.5 L 278.824219 107 L 278.824219 107.5 L 279.300781 108 L 279.300781 110 L 278.824219 110.5 L 278.824219 111.5 L 278.351562 112 L 277.398438 113 L 276.925781 113 L 276.449219 113.5 L 275.976562 113.5 L 275.5 114 L 274.074219 114 L 273.601562 113.5 L 272.648438 113.5 L 272.175781 113 L 271.699219 112.5 L 271.226562 112 L 270.75 111.5 L 270.75 111 L 270.273438 110.5 L 270.273438 107.5 L 270.75 107 L 270.75 106 L 270.273438 105.5 L 269.800781 105 L 269.324219 104.5 L 268.851562 104 L 267.898438 103 L 267.425781 102.5 L 266.949219 102 L 266.476562 101.5 L 265.523438 100.5 L 265.050781 100 L 264.574219 99.5 L 264.101562 99 L 263.148438 98 L 262.675781 97.5 L 262.199219 97 L 261.726562 96.5 L 260.773438 95.5 L 260.300781 95 L 259.824219 94.5 L 259.351562 94 L 255.074219 94 L 254.601562 94.5 L 253.648438 93.5 Z M 271.699219 79.5 L 272.175781 79 L 272.648438 79 L 273.601562 80 L 274.074219 80.5 L 274.550781 81 L 275.023438 81.5 L 275.976562 82.5 L 275.976562 100.5 L 276.449219 101 L 276.925781 101.5 L 277.398438 102 L 278.351562 103 L 278.824219 103.5 L 279.300781 104 L 279.773438 104.5 L 280.726562 105.5 L 281.199219 106 L 281.675781 106.5 L 282.148438 107 L 283.101562 108 L 283.574219 108.5 L 284.050781 109 L 284.523438 109.5 L 285.476562 110.5 L 285 111 L 284.523438 111 L 284.050781 110.5 L 283.574219 110 L 283.101562 109.5 L 282.148438 108.5 L 281.675781 108 L 281.199219 107.5 L 280.726562 107 L 279.773438 106 L 279.300781 105.5 L 278.824219 105.5 L 278.351562 105 L 278.351562 104.5 L 277.398438 103.5 L 276.925781 103 L 276.449219 102.5 L 275.976562 102 L 275.023438 101 L 275.023438 83 L 274.550781 82.5 L 274.074219 82 L 273.601562 81.5 L 272.648438 80.5 L 272.175781 80 Z M 321.101562 76.5 L 321.574219 76 L 322.050781 76 L 322.523438 76.5 L 322.523438 77 L 322.050781 77.5 L 321.574219 78 L 321.101562 78.5 L 320.148438 79.5 L 319.675781 80 L 319.199219 80.5 L 318.726562 81 L 317.773438 82 L 317.773438 102.5 L 317.300781 103 L 316.824219 103.5 L 316.351562 104 L 315.398438 105 L 314.925781 105.5 L 314.449219 106 L 313.976562 106.5 L 313.5 107 L 313.023438 107 L 313.023438 108 L 313.5 108.5 L 313.5 112 L 313.023438 112.5 L 313.023438 113 L 312.550781 113.5 L 312.074219 114 L 311.601562 114 L 311.125 114.5 L 310.648438 114.5 L 310.175781 115 L 307.800781 115 L 307.324219 114.5 L 306.851562 114.5 L 305.898438 113.5 L 305.425781 113 L 304.949219 112.5 L 304.949219 111.5 L 304.476562 111 L 304.476562 109.5 L 304.949219 109 L 304.949219 108 L 305.425781 107.5 L 305.898438 107 L 306.851562 106 L 307.324219 106 L 307.800781 105.5 L 310.175781 105.5 L 310.648438 106 L 312.074219 106 L 312.550781 105.5 L 313.023438 105 L 313.976562 104 L 314.449219 103.5 L 314.925781 103 L 315.398438 102.5 L 316.351562 101.5 L 316.351562 81.5 L 316.824219 81 L 317.300781 80.5 L 317.773438 80 L 318.726562 79 L 319.199219 78.5 L 319.675781 78 L 320.148438 77.5 Z M 268.375 74.5 L 268.851562 74 L 271.226562 74 L 271.699219 74.5 L 272.175781 75 L 272.648438 75.5 L 272.648438 77.5 L 272.175781 78 L 272.175781 79 L 271.699219 79.5 L 270.75 79.5 L 270.273438 80 L 269.324219 80 L 268.851562 79.5 L 268.375 79.5 L 267.898438 79 L 267.425781 78.5 L 267.425781 78 L 266.949219 77.5 L 266.949219 76.5 L 267.425781 76 L 267.425781 75.5 L 267.898438 75 Z M 309.699219 70.5 L 310.175781 70 L 312.550781 70 L 313.023438 70.5 L 313.976562 71.5 L 313.976562 72 L 314.449219 72.5 L 314.449219 73.5 L 313.976562 74 L 313.976562 74.5 L 313.023438 75.5 L 312.550781 75.5 L 312.074219 76 L 311.125 76 L 310.648438 75.5 L 309.699219 75.5 L 309.226562 76 L 308.273438 77 L 308.273438 101.5 L 307.800781 102 L 307.324219 102.5 L 306.851562 103 L 305.898438 104 L 305.425781 104.5 L 304.949219 105 L 304.476562 105.5 L 303.523438 106.5 L 303.050781 107 L 302.574219 107.5 L 302.101562 108 L 301.148438 109 L 300.675781 109.5 L 300.199219 110 L 299.726562 110.5 L 299.25 111 L 298.773438 111 L 298.300781 110.5 L 298.773438 110 L 299.726562 109 L 300.199219 108.5 L 300.675781 108 L 301.148438 107.5 L 302.101562 106.5 L 302.574219 106 L 303.050781 105.5 L 303.523438 105 L 304.476562 104 L 304.949219 103.5 L 305.425781 103 L 305.898438 102.5 L 306.851562 101.5 L 307.324219 101 L 307.324219 76.5 L 307.800781 76 L 308.273438 75.5 L 308.75 75 L 308.75 71.5 L 309.226562 71 Z M 291.175781 29 L 291.648438 28.5 L 292.125 28.5 L 292.601562 29 L 292.601562 60.5 L 293.074219 61 L 293.550781 61.5 L 294.023438 62 L 294.976562 63 L 295.449219 63.5 L 295.925781 64 L 296.398438 64.5 L 297.351562 65.5 L 297.824219 66 L 298.300781 66.5 L 298.773438 67 L 299.726562 68 L 300.199219 68.5 L 300.675781 69 L 301.148438 69.5 L 302.101562 70.5 L 302.101562 84.5 L 303.050781 84.5 L 303.523438 85 L 304.476562 86 L 304.949219 86.5 L 305.425781 87 L 305.425781 91 L 304.949219 91.5 L 304.476562 92 L 303.523438 93 L 303.050781 93 L 302.574219 93.5 L 299.25 93.5 L 298.773438 93 L 298.300781 92.5 L 297.824219 92 L 297.351562 91.5 L 296.875 91 L 296.875 90 L 296.398438 89.5 L 296.398438 88.5 L 296.875 88 L 296.875 87 L 297.351562 86.5 L 297.351562 86 L 297.824219 85.5 L 298.300781 85 L 298.773438 85 L 299.25 84.5 L 300.199219 84.5 L 300.199219 70.5 L 299.726562 70.5 L 299.25 70 L 299.25 69.5 L 298.773438 69.5 L 298.300781 69 L 297.824219 68.5 L 297.351562 68 L 296.875 67.5 L 296.875 67 L 296.398438 67 L 295.925781 66.5 L 295.925781 66 L 295.449219 66 L 294.976562 65.5 L 294.976562 65 L 294.5 65 L 294.023438 64.5 L 293.550781 64 L 293.550781 63.5 L 292.601562 63.5 L 292.601562 92 L 293.074219 92.5 L 294.023438 92.5 L 294.976562 93.5 L 295.449219 94 L 295.925781 94.5 L 295.925781 95 L 296.398438 95.5 L 296.398438 98.5 L 295.925781 99 L 295.925781 99.5 L 295.449219 100 L 294.976562 100.5 L 294.5 101 L 294.023438 101 L 293.550781 101.5 L 290.226562 101.5 L 289.75 101 L 289.273438 101 L 288.800781 100.5 L 288.324219 100 L 288.324219 99.5 L 287.851562 99 L 287.851562 98.5 L 287.375 98 L 287.375 95.5 L 287.851562 95 L 287.851562 94.5 L 288.324219 94 L 288.800781 93.5 L 289.273438 93 L 289.75 93 L 290.226562 92.5 L 290.699219 92.5 L 291.175781 92 L 291.175781 49.5 L 290.226562 49.5 L 289.273438 50.5 L 288.800781 51 L 288.324219 51.5 L 287.851562 52 L 286.898438 53 L 286.425781 53.5 L 285.949219 54 L 285.476562 54.5 L 284.523438 55.5 L 284.050781 56 L 283.574219 56.5 L 283.574219 80 L 284.050781 80.5 L 284.523438 80.5 L 285 81 L 285.476562 81 L 285.949219 81.5 L 286.425781 82 L 286.425781 82.5 L 286.898438 83 L 286.898438 86.5 L 286.425781 87 L 286.425781 87.5 L 285.949219 88 L 285.476562 88.5 L 285 89 L 284.523438 89 L 284.050781 89.5 L 281.199219 89.5 L 280.726562 89 L 280.25 89 L 279.773438 88.5 L 279.300781 88 L 278.824219 87.5 L 278.351562 87 L 278.351562 86 L 277.875 85.5 L 277.875 84.5 L 278.351562 84 L 278.351562 83 L 278.824219 82.5 L 278.824219 82 L 279.300781 81.5 L 279.773438 81 L 280.25 81 L 280.726562 80.5 L 281.199219 80.5 L 281.675781 80 L 281.675781 56.5 L 282.148438 56 L 283.101562 55 L 283.574219 54.5 L 283.574219 54 L 284.050781 53.5 L 284.523438 53.5 L 284.523438 53 L 285 52.5 L 285.476562 52.5 L 285.476562 52 L 285.949219 51.5 L 286.425781 51.5 L 286.425781 51 L 286.898438 50.5 L 287.375 50.5 L 287.851562 50 L 287.851562 49.5 L 288.324219 49 L 288.800781 49 L 288.800781 48.5 L 289.273438 48 L 289.75 48 L 289.75 47.5 L 290.226562 47 L 290.699219 47 L 291.175781 46.5 Z M 291.175781 29 "/>
</g>
</svg>